<svg id="Grupo_4" data-name="Grupo 4" xmlns="http://www.w3.org/2000/svg" xmlns:xlink="http://www.w3.org/1999/xlink" width="401.413" height="57.931" viewBox="0 0 401.413 57.931">
  <defs>
    <clipPath id="clip-path">
      <rect id="Rect치ngulo_2" data-name="Rect치ngulo 2" width="401.413" height="57.931" fill="red"/>
    </clipPath>
  </defs>
  <rect id="Rect치ngulo_1" data-name="Rect치ngulo 1" width="18.672" height="13.777" transform="translate(0 44.149)" fill="#1ff288"/>
  <g id="Grupo_2" data-name="Grupo 2">
    <g id="Grupo_1" data-name="Grupo 1" clip-path="url(#clip-path)">
      <path id="Trazado_1" data-name="Trazado 1" d="M390.317.084H368.13L344.849,52.513l-6.978-10.857a19.364,19.364,0,0,0,7.556-7.916,24.363,24.363,0,0,0,2.886-11.834c.135-11.958-8.236-21.984-18.1-21.855h-46.13L222.9.006H204.2V30.641L183.182,0h-25.69V44.7L137.681.079h-22.2L97.417,40.763A14.134,14.134,0,0,0,88.434,28.02a15.1,15.1,0,0,0,5.558-12.441C94.1,5.507,87.082.051,78.784.09H33.26V44.154H51.927V36.407H77.032c1.606,0,2.925,1.937,2.925,3.879s-1.319,3.868-2.925,3.868H51.927V57.931h58.891l3.778-9.9h23.972l3.778,9.9h21.013l-.034-.084h12.839V22.5l25.723,35.335H222.9V16.954h21.389V57.925h18.667V16.954h21.126V57.88h18.672V43.761h16.662l9.022,14.119h14.024l-.017.039h21.019l3.778-9.9h23.972l3.773,9.9H416ZM73.546,21.6H51.927V13.81h21.62c1.6,0,2.919,1.937,2.919,3.874S75.146,21.6,73.546,21.6m46.462,12.312L126.6,16.825l6.557,17.083ZM329.607,21.9a5.292,5.292,0,0,1-1.213,3.486,3.59,3.59,0,0,1-2.886,1.42H302.749V16.954h22.759a4.556,4.556,0,0,1,4.1,4.946m43.043,12.008,6.591-17.083,6.552,17.083Z" transform="translate(-14.588)" fill="#7500d9"/>
    </g>
  </g>
</svg>
